# xmcd
#
# Track frame offsets: 
#        150
#        10689
#        29691
#        47061
#        62824
#        80085
#        108847
#        130071
#        149581
#        163832
#        178889
#        191318
#        203127
#        218437
#        240485
#        253552
#        283363
#        299989
#        309867
#        329441
#
# Disc length: 4546 seconds
#
# Revision: 0
# Processed by: cddbd v1.5.2PL0 Copyright (c) Steve Scherf et al.
# Submitted via: ExactAudioCopy v0.99pb4
#
DISCID=3211c014
DTITLE=Various Artist - Classic Cuts 75 MOR
DYEAR=1900
DGENRE=Pop
TTITLE0=What a Wonderful World - Louis Armstrong
TTITLE1=We've Only Just Begun - Carpenters
TTITLE2=If You Leave Me Now - Chicago 
TTITLE3=Unforgettable - Nat King Cole
TTITLE4=Sylvia's Mother - Dr Hook and The Medicine Show
TTITLE5=Lyin' Eyes - Eagles
TTITLE6=True Love - Glenn Frey
TTITLE7=The Way It Is - Bruce Hornsby and The Range
TTITLE8=A Swinging Safari - Bert Kaempfert
TTITLE9=Fever - Peggy Lee
TTITLE10=Sway - Dean Martin
TTITLE11=From Russia With Love - Matt Monro
TTITLE12=Keep On Loving You - REO Speedwagon
TTITLE13=Bridge over Troubled Water - Simon and Garfunkel
TTITLE14=They All Laughed - Frank Sinatra
TTITLE15=Year of the Cat - Al Stewart
TTITLE16=Fields of Gold - Sting
TTITLE17=Tower of Strength - Frankie Vaughan
TTITLE18=Heartbreaker - Dionne Warwick
TTITLE19=Music to Watch Girls By - Andy Williams
EXTD=
EXTT0=
EXTT1=
EXTT2=
EXTT3=
EXTT4=
EXTT5=
EXTT6=
EXTT7=
EXTT8=
EXTT9=
EXTT10=
EXTT11=
EXTT12=
EXTT13=
EXTT14=
EXTT15=
EXTT16=
EXTT17=
EXTT18=
EXTT19=
PLAYORDER=
